<?xml version="1.0" standalone="no"?>
<!DOCTYPE svg PUBLIC "-//W3C//DTD SVG 20010904//EN"
 "http://www.w3.org/TR/2001/REC-SVG-20010904/DTD/svg10.dtd">
<svg version="1.0" xmlns="http://www.w3.org/2000/svg"
 width="200.000000pt" height="200.000000pt" viewBox="0 0 200.000000 200.000000"
 preserveAspectRatio="xMidYMid meet">
<metadata>
Created by potrace 1.15, written by Peter Selinger 2001-2017
</metadata>
<g transform="translate(0.000000,200.000000) scale(0.100000,-0.100000)"
fill="#000000" stroke="none">
<path d="M957 1861 c-45 -9 -91 -41 -95 -65 -6 -31 8 -66 26 -66 29 0 43 19
29 41 -41 65 156 89 199 25 13 -21 13 -28 1 -58 -25 -57 -103 -118 -153 -118
-15 0 12 63 62 142 28 44 30 58 9 58 -9 0 -45 -40 -82 -90 -36 -49 -69 -90
-72 -90 -4 0 -17 7 -29 16 -48 33 -52 -17 -5 -68 79 -84 261 -41 317 76 18 38
21 117 6 147 -23 41 -130 67 -213 50z"/>
<path d="M845 1510 c-304 -25 -568 -148 -682 -318 -51 -75 -63 -115 -63 -204
0 -85 26 -157 81 -223 53 -64 65 -68 33 -10 -37 65 -64 161 -64 227 0 84 31
157 98 229 101 110 224 177 411 226 130 34 389 43 531 19 169 -30 383 -111
500 -189 l45 -30 -30 32 c-152 166 -520 269 -860 241z"/>
<path d="M479 1278 c-1 -2 -2 -14 -3 -28 -1 -14 -15 -75 -31 -137 l-29 -111
-51 -29 -50 -29 0 -67 c0 -56 -3 -68 -18 -73 -13 -4 -17 -14 -15 -32 3 -25 6
-27 48 -23 35 2 51 10 73 35 26 28 27 29 8 2 -28 -38 -26 -58 5 -95 31 -37 69
-41 108 -10 31 25 36 81 9 113 -17 20 -17 20 0 7 16 -13 17 -2 17 188 l0 201
115 0 115 0 0 -130 0 -130 410 0 410 0 0 149 c0 82 -4 161 -10 175 l-10 26
-550 0 c-302 0 -551 -1 -551 -2z"/>
<path d="M560 976 c0 -191 1 -205 21 -230 19 -24 26 -26 105 -26 l84 0 0 230
0 230 -105 0 -105 0 0 -204z m188 127 l-3 -58 -80 0 -80 0 -3 44 c-5 69 -3 71
88 71 l81 0 -3 -57z"/>
<path d="M1777 1077 c24 -67 13 -180 -22 -245 -40 -74 -145 -169 -241 -219
-177 -92 -354 -128 -588 -120 -167 5 -252 21 -401 71 -11 4 -4 -2 15 -13 154
-89 504 -108 771 -40 170 42 300 111 401 210 116 114 146 223 94 335 -30 64
-49 78 -29 21z"/>
<path d="M780 820 l0 -100 190 0 190 0 0 29 c0 43 37 81 86 88 33 4 45 1 72
-22 19 -16 34 -40 38 -61 l6 -34 108 0 c60 0 115 -3 124 -6 13 -5 16 1 16 25
0 17 -5 31 -10 31 -6 0 -10 10 -9 23 1 12 1 46 1 75 l-2 52 -405 0 -405 0 0
-100z"/>
<path d="M1205 795 c-16 -15 -25 -36 -25 -55 0 -19 9 -40 25 -55 15 -16 36
-25 55 -25 19 0 40 9 55 25 16 15 25 36 25 55 0 19 -9 40 -25 55 -15 16 -36
25 -55 25 -19 0 -40 -9 -55 -25z"/>
<path d="M686 451 c-75 -16 -128 -113 -77 -141 29 -15 31 -13 31 28 0 27 7 45
21 58 l21 19 -7 -35 c-4 -19 -18 -81 -30 -136 l-22 -101 71 -6 c88 -8 108 4
143 79 25 54 34 138 19 179 -16 47 -91 72 -170 56z"/>
<path d="M272 428 c-5 -7 -12 -24 -14 -38 -2 -18 -10 -26 -28 -28 -49 -6 -77
-24 -98 -61 -24 -43 -30 -129 -10 -149 15 -15 62 -16 88 -2 13 7 21 7 25 0 9
-14 68 -13 83 2 9 9 15 9 24 0 7 -7 34 -12 61 -12 43 0 53 4 86 37 41 41 29
57 -19 23 -17 -12 -38 -20 -48 -18 -29 6 -19 37 18 56 69 34 77 122 11 122
-17 0 -41 -5 -55 -12 -25 -11 -66 -79 -66 -110 0 -27 -11 -48 -26 -48 -17 0
-18 -12 11 124 14 64 25 118 25 121 0 11 -58 4 -68 -7z"/>
<path d="M1510 402 c0 -10 -6 -27 -14 -38 -8 -10 -12 -29 -10 -41 8 -32 -23
-133 -41 -133 -18 0 -18 0 0 75 21 90 20 95 -19 95 l-33 0 -17 -80 c-17 -75
-29 -100 -43 -86 -5 5 2 50 24 144 5 20 1 22 -30 22 -39 0 -38 2 -58 -93 -11
-53 -32 -87 -45 -74 -3 3 -1 30 6 61 19 94 6 107 -100 103 -50 -2 -55 -4 -59
-27 -5 -40 -24 -43 -41 -7 -12 26 -22 33 -51 35 -65 5 -119 -61 -119 -147 0
-51 20 -71 71 -71 48 0 83 32 96 87 5 20 13 38 20 40 11 4 9 -12 -12 -105 -5
-21 -3 -23 32 -20 l37 3 14 70 c13 65 34 107 47 93 4 -3 0 -34 -7 -67 -9 -45
-9 -67 -2 -79 13 -20 70 -28 89 -12 9 8 15 8 20 0 8 -13 60 -13 85 0 13 7 21
7 25 0 8 -14 68 -13 83 2 8 8 15 8 24 1 7 -6 54 -11 103 -11 95 0 128 11 171
59 19 22 19 22 -3 17 -26 -7 -33 12 -33 95 0 48 -3 57 -17 57 -45 0 -59 -12
-81 -70 -13 -32 -30 -64 -38 -70 -7 -7 -14 -19 -14 -26 0 -8 -7 -14 -16 -14
-13 0 -15 6 -10 33 4 17 10 47 13 65 3 18 14 37 24 43 22 11 25 29 6 29 -9 0
-12 10 -9 30 4 29 3 30 -32 30 -28 0 -36 -4 -36 -18z"/>
</g>
</svg>
