<?xml version="1.0" standalone="no"?>
<!DOCTYPE svg PUBLIC "-//W3C//DTD SVG 20010904//EN"
 "http://www.w3.org/TR/2001/REC-SVG-20010904/DTD/svg10.dtd">
<svg version="1.0" xmlns="http://www.w3.org/2000/svg"
 width="200.000000pt" height="200.000000pt" viewBox="0 0 200.000000 200.000000"
 preserveAspectRatio="xMidYMid meet">

<g transform="translate(0.000000,200.000000) scale(0.100000,-0.100000)"
fill="#000000" stroke="none">
<path d="M0 1000 l0 -1000 1000 0 1000 0 0 1000 0 1000 -1000 0 -1000 0 0
-1000z m1196 455 c106 -19 296 -81 385 -126 143 -71 243 -160 289 -254 19 -39
26 -70 28 -137 4 -81 2 -93 -27 -154 -91 -195 -365 -340 -706 -374 -152 -16
-306 -5 -342 24 -23 17 -40 21 -97 19 -79 -2 -182 31 -289 91 -149 84 -228
180 -271 328 -37 129 -11 239 82 339 116 126 276 204 496 244 101 19 345 18
452 0z"/>
<path d="M1007 1313 c-15 -15 -5 -23 28 -23 36 0 47 13 19 24 -20 8 -39 8 -47
-1z"/>
<path d="M1197 1313 c-15 -15 -5 -23 28 -23 36 0 47 13 19 24 -20 8 -39 8 -47
-1z"/>
<path d="M479 1278 c-1 -2 -2 -14 -3 -28 -1 -14 -15 -75 -31 -137 l-29 -111
-51 -29 -50 -29 0 -67 c0 -56 -3 -68 -18 -73 -13 -4 -17 -14 -15 -32 3 -25 6
-27 48 -23 35 2 51 10 73 35 26 28 27 29 8 2 -28 -38 -26 -58 5 -95 31 -37 69
-41 108 -10 31 25 36 81 9 113 -17 20 -17 20 0 7 16 -13 17 -2 17 188 l0 201
115 0 115 0 0 -130 0 -130 410 0 410 0 0 149 c0 82 -4 161 -10 175 l-10 26
-550 0 c-302 0 -551 -1 -551 -2z m49 -166 l3 -92 -41 0 c-22 0 -40 4 -40 9 0
11 28 135 36 164 3 10 13 17 22 15 14 -3 17 -19 20 -96z m-176 -284 c-9 -9
-12 -7 -12 12 0 19 3 21 12 12 9 -9 9 -15 0 -24z m162 -70 c14 -23 -3 -52 -33
-56 -42 -6 -67 38 -39 66 17 17 58 11 72 -10z"/>
<path d="M460 740 c0 -5 7 -10 15 -10 8 0 15 5 15 10 0 6 -7 10 -15 10 -8 0
-15 -4 -15 -10z"/>
<path d="M560 976 c0 -191 1 -205 21 -230 19 -24 26 -26 105 -26 l84 0 0 230
0 230 -105 0 -105 0 0 -204z m188 127 l-3 -58 -80 0 -80 0 -3 44 c-5 69 -3 71
88 71 l81 0 -3 -57z m-148 -114 c0 -11 -4 -17 -10 -14 -5 3 -10 13 -10 21 0 8
5 14 10 14 6 0 10 -9 10 -21z"/>
<path d="M1777 1078 c24 -68 14 -181 -22 -246 -40 -74 -145 -169 -241 -219
-177 -92 -354 -128 -588 -120 -167 5 -250 20 -401 71 -11 4 1 -4 27 -18 55
-30 201 -70 312 -85 319 -45 673 47 847 219 84 84 113 141 117 241 3 61 0 85
-18 127 -29 68 -54 90 -33 30z"/>
<path d="M780 820 l0 -100 190 0 190 0 0 29 c0 43 37 81 86 88 33 4 45 1 72
-22 19 -16 34 -40 38 -61 l6 -34 108 0 c60 0 115 -3 124 -6 13 -5 16 1 16 25
0 17 -5 31 -10 31 -6 0 -10 10 -9 23 1 12 1 46 1 75 l-2 52 -405 0 -405 0 0
-100z m708 23 c-21 -2 -57 -2 -80 0 -24 2 -7 4 37 4 44 0 63 -2 43 -4z m0 -50
c-21 -2 -57 -2 -80 0 -24 2 -7 4 37 4 44 0 63 -2 43 -4z"/>
<path d="M1205 795 c-16 -15 -25 -36 -25 -55 0 -19 9 -40 25 -55 15 -16 36
-25 55 -25 19 0 40 9 55 25 16 15 25 36 25 55 0 19 -9 40 -25 55 -15 16 -36
25 -55 25 -19 0 -40 -9 -55 -25z m90 -55 c0 -33 -2 -35 -35 -35 -29 0 -36 4
-38 23 -6 40 5 54 40 50 30 -3 33 -6 33 -38z"/>
<path d="M1250 740 c0 -5 5 -10 10 -10 6 0 10 5 10 10 0 6 -4 10 -10 10 -5 0
-10 -4 -10 -10z"/>
</g>
</svg>
